<svg xmlns="http://www.w3.org/2000/svg" viewBox="0 0 320 320" role="img" aria-labelledby="title desc">
  <title id="title">Hummingbird pollinator illustration</title>
  <desc id="desc">A colorful hummingbird with a long beak hovering beside a red tubular flower.</desc>
  <defs>
    <linearGradient id="wingTop" x1="0" y1="0" x2="1" y2="1">
      <stop offset="0%" stop-color="#d8fff8"/>
      <stop offset="100%" stop-color="#7edfd3"/>
    </linearGradient>
    <linearGradient id="wingBottom" x1="0" y1="0" x2="1" y2="1">
      <stop offset="0%" stop-color="#b4f4ea"/>
      <stop offset="100%" stop-color="#53c8b8"/>
    </linearGradient>
    <linearGradient id="bodyGrad" x1="0" y1="0" x2="1" y2="1">
      <stop offset="0%" stop-color="#34c6a7"/>
      <stop offset="100%" stop-color="#0e8d75"/>
    </linearGradient>
    <linearGradient id="throatGrad" x1="0" y1="0" x2="1" y2="1">
      <stop offset="0%" stop-color="#ff7b94"/>
      <stop offset="100%" stop-color="#d74968"/>
    </linearGradient>
  </defs>
  <rect width="320" height="320" rx="36" fill="#f6fffb"/>
  <ellipse cx="214" cy="156" rx="60" ry="44" fill="url(#bodyGrad)"/>
  <circle cx="262" cy="142" r="24" fill="url(#bodyGrad)"/>
  <circle cx="270" cy="136" r="4" fill="#111"/>
  <path d="M279 142 L316 132 L281 151" fill="none" stroke="#284628" stroke-width="8" stroke-linecap="round" stroke-linejoin="round"/>
  <path d="M182 146 C136 54 72 42 30 58 C57 102 108 136 186 164" fill="url(#wingTop)" stroke="#56a69a" stroke-width="6" stroke-linejoin="round"/>
  <path d="M170 182 C122 138 60 142 36 174 C68 220 126 223 182 194" fill="url(#wingBottom)" stroke="#56a69a" stroke-width="6" stroke-linejoin="round"/>
  <path d="M162 188 L86 238 L148 226" fill="#0f8d75"/>
  <path d="M150 212 L94 292" fill="none" stroke="#0f8d75" stroke-width="10" stroke-linecap="round"/>
  <path d="M216 172 C226 198 228 228 217 260" fill="none" stroke="url(#throatGrad)" stroke-width="12" stroke-linecap="round"/>
  <path d="M286 188 C298 186 306 194 306 205 C291 214 277 214 267 206" fill="#ff6d86" stroke="#d44d68" stroke-width="6"/>
  <path d="M252 190 C272 191 285 196 296 204" fill="none" stroke="#b54259" stroke-width="4" stroke-linecap="round"/>
</svg>
