<svg xmlns="http://www.w3.org/2000/svg" width="2550" height="3300" viewBox="0 0 2550 3300" role="img" aria-labelledby="title desc">
  <title id="title">Food Chain Visuals</title>
  <desc id="desc">Arrows show energy moving from food to eater</desc>
  <defs>
    <linearGradient id="paperBg" x1="0" y1="0" x2="1" y2="1"><stop offset="0" stop-color="#f9fffe"/><stop offset=".52" stop-color="#ffffff"/><stop offset="1" stop-color="#f3e8ff"/></linearGradient>
    <linearGradient id="topWash" x1="0" y1="0" x2="1" y2="0"><stop offset="0" stop-color="#ff6b6b" stop-opacity=".22"/><stop offset=".50" stop-color="#4ecdc4" stop-opacity=".18"/><stop offset="1" stop-color="#5a3490" stop-opacity=".20"/></linearGradient>
    <filter id="softShadow" x="-15%" y="-15%" width="130%" height="130%"><feDropShadow dx="0" dy="16" stdDeviation="20" flood-color="#3b1f6b" flood-opacity=".14"/></filter>
    <filter id="tinyShadow" x="-20%" y="-20%" width="140%" height="140%"><feDropShadow dx="0" dy="8" stdDeviation="8" flood-color="#3b1f6b" flood-opacity=".12"/></filter>
    <marker id="arrow" markerWidth="18" markerHeight="18" refX="14" refY="6" orient="auto" markerUnits="strokeWidth"><path d="M2,2 L14,6 L2,10 Z" fill="#3B1F6B"/></marker>
    <marker id="arrowTeal" markerWidth="18" markerHeight="18" refX="14" refY="6" orient="auto" markerUnits="strokeWidth"><path d="M2,2 L14,6 L2,10 Z" fill="#35B8AF"/></marker>
    <style>
      .display{font-family:Georgia,'Times New Roman',serif} .sans{font-family:Arial,Helvetica,sans-serif} .navy{fill:#3B1F6B} .muted{fill:#5A7A78} .white{fill:#fff} .label{font-family:Arial,Helvetica,sans-serif;font-weight:900;letter-spacing:.03em} .small{font-size:32px} .body{font-size:42px} .caption{font-size:30px;font-weight:700} .titleText{font-size:96px;font-weight:900} .cardTitle{font-size:48px;font-weight:900} .tiny{font-size:26px}
    </style>
  </defs>
  <rect width="2550" height="3300" fill="url(#paperBg)"/>
  <rect width="2550" height="470" fill="url(#topWash)"/>
  <circle cx="230" cy="210" r="120" fill="#d4f5f3" opacity=".72"/><circle cx="2315" cy="270" r="145" fill="#ffe8e8" opacity=".72"/><circle cx="2105" cy="135" r="64" fill="#fef3c7" opacity=".75"/>
  <text x="1275" y="178" text-anchor="middle" class="display titleText navy">Food Chain Visuals</text>
  <text x="1275" y="256" text-anchor="middle" class="sans body muted">Arrows show energy moving from food to eater</text>
  <text x="1275" y="322" text-anchor="middle" class="sans small muted">Little Lab Coats free printable · personal/family/classroom use</text>
<g transform="translate(160,475)" filter="url(#softShadow)"><rect width="2230" height="2520" rx="58" fill="#fff" stroke="#c8f0ed" stroke-width="5"/></g><text x="1275" y="590" text-anchor="middle" class="display" font-size="64" font-weight="900" fill="#3B1F6B">Grassland example</text><g transform="translate(310,680)"><rect width="285" height="220" rx="38" fill="#FEF3C7" stroke="#C8F0ED" stroke-width="4" filter="url(#tinyShadow)"/><circle cx="142" cy="68" r="38" fill="#fff"/><text x="142" y="83" text-anchor="middle" class="sans" font-size="38" font-weight="900" fill="#3B1F6B">1</text><text x="142" y="140" text-anchor="middle" class="sans caption" fill="#3B1F6B">Sun</text><text x="142" y="198" text-anchor="middle" class="sans tiny muted">energy</text></g><path d="M605 790 L675 790" fill="none" stroke="#3B1F6B" stroke-width="8" stroke-linecap="round" stroke-linejoin="round" marker-end="url(#arrow)"/><g transform="translate(695,680)"><rect width="285" height="220" rx="38" fill="#D4F5F3" stroke="#C8F0ED" stroke-width="4" filter="url(#tinyShadow)"/><circle cx="142" cy="68" r="38" fill="#fff"/><text x="142" y="83" text-anchor="middle" class="sans" font-size="38" font-weight="900" fill="#3B1F6B">2</text><text x="142" y="140" text-anchor="middle" class="sans caption" fill="#3B1F6B">grass</text><text x="142" y="198" text-anchor="middle" class="sans tiny muted">producer</text></g><path d="M990 790 L1060 790" fill="none" stroke="#3B1F6B" stroke-width="8" stroke-linecap="round" stroke-linejoin="round" marker-end="url(#arrow)"/><g transform="translate(1080,680)"><rect width="285" height="220" rx="38" fill="#FFE8E8" stroke="#C8F0ED" stroke-width="4" filter="url(#tinyShadow)"/><circle cx="142" cy="68" r="38" fill="#fff"/><text x="142" y="83" text-anchor="middle" class="sans" font-size="38" font-weight="900" fill="#3B1F6B">3</text><text x="142" y="140" text-anchor="middle" class="sans caption" fill="#3B1F6B">grasshopper</text><text x="142" y="198" text-anchor="middle" class="sans tiny muted">consumer</text></g><path d="M1375 790 L1445 790" fill="none" stroke="#3B1F6B" stroke-width="8" stroke-linecap="round" stroke-linejoin="round" marker-end="url(#arrow)"/><g transform="translate(1465,680)"><rect width="285" height="220" rx="38" fill="#fbf7ff" stroke="#C8F0ED" stroke-width="4" filter="url(#tinyShadow)"/><circle cx="142" cy="68" r="38" fill="#fff"/><text x="142" y="83" text-anchor="middle" class="sans" font-size="38" font-weight="900" fill="#3B1F6B">4</text><text x="142" y="140" text-anchor="middle" class="sans caption" fill="#3B1F6B">frog</text><text x="142" y="198" text-anchor="middle" class="sans tiny muted">consumer</text></g><path d="M1760 790 L1830 790" fill="none" stroke="#3B1F6B" stroke-width="8" stroke-linecap="round" stroke-linejoin="round" marker-end="url(#arrow)"/><g transform="translate(1850,680)"><rect width="285" height="220" rx="38" fill="#FEF3C7" stroke="#C8F0ED" stroke-width="4" filter="url(#tinyShadow)"/><circle cx="142" cy="68" r="38" fill="#fff"/><text x="142" y="83" text-anchor="middle" class="sans" font-size="38" font-weight="900" fill="#3B1F6B">5</text><text x="142" y="140" text-anchor="middle" class="sans caption" fill="#3B1F6B">snake</text><text x="142" y="198" text-anchor="middle" class="sans tiny muted">consumer</text></g><path d="M2145 790 L2215 790" fill="none" stroke="#3B1F6B" stroke-width="8" stroke-linecap="round" stroke-linejoin="round" marker-end="url(#arrow)"/><g transform="translate(2235,680)"><rect width="285" height="220" rx="38" fill="#D4F5F3" stroke="#C8F0ED" stroke-width="4" filter="url(#tinyShadow)"/><circle cx="142" cy="68" r="38" fill="#fff"/><text x="142" y="83" text-anchor="middle" class="sans" font-size="38" font-weight="900" fill="#3B1F6B">6</text><text x="142" y="140" text-anchor="middle" class="sans caption" fill="#3B1F6B">hawk</text><text x="142" y="198" text-anchor="middle" class="sans tiny muted">consumer</text></g><text x="1275" y="1660" text-anchor="middle" class="display" font-size="64" font-weight="900" fill="#3B1F6B">Ocean example</text><g transform="translate(310,1750)"><rect width="285" height="220" rx="38" fill="#FEF3C7" stroke="#C8F0ED" stroke-width="4" filter="url(#tinyShadow)"/><circle cx="142" cy="68" r="38" fill="#fff"/><text x="142" y="83" text-anchor="middle" class="sans" font-size="38" font-weight="900" fill="#3B1F6B">1</text><text x="142" y="140" text-anchor="middle" class="sans caption" fill="#3B1F6B">Sun</text><text x="142" y="198" text-anchor="middle" class="sans tiny muted">energy</text></g><path d="M605 1860 L675 1860" fill="none" stroke="#3B1F6B" stroke-width="8" stroke-linecap="round" stroke-linejoin="round" marker-end="url(#arrow)"/><g transform="translate(695,1750)"><rect width="285" height="220" rx="38" fill="#D4F5F3" stroke="#C8F0ED" stroke-width="4" filter="url(#tinyShadow)"/><circle cx="142" cy="68" r="38" fill="#fff"/><text x="142" y="83" text-anchor="middle" class="sans" font-size="38" font-weight="900" fill="#3B1F6B">2</text><text x="142" y="140" text-anchor="middle" class="sans caption" fill="#3B1F6B">phytoplankton</text><text x="142" y="198" text-anchor="middle" class="sans tiny muted">producer</text></g><path d="M990 1860 L1060 1860" fill="none" stroke="#3B1F6B" stroke-width="8" stroke-linecap="round" stroke-linejoin="round" marker-end="url(#arrow)"/><g transform="translate(1080,1750)"><rect width="285" height="220" rx="38" fill="#FFE8E8" stroke="#C8F0ED" stroke-width="4" filter="url(#tinyShadow)"/><circle cx="142" cy="68" r="38" fill="#fff"/><text x="142" y="83" text-anchor="middle" class="sans" font-size="38" font-weight="900" fill="#3B1F6B">3</text><text x="142" y="140" text-anchor="middle" class="sans caption" fill="#3B1F6B">zooplankton</text><text x="142" y="198" text-anchor="middle" class="sans tiny muted">consumer</text></g><path d="M1375 1860 L1445 1860" fill="none" stroke="#3B1F6B" stroke-width="8" stroke-linecap="round" stroke-linejoin="round" marker-end="url(#arrow)"/><g transform="translate(1465,1750)"><rect width="285" height="220" rx="38" fill="#fbf7ff" stroke="#C8F0ED" stroke-width="4" filter="url(#tinyShadow)"/><circle cx="142" cy="68" r="38" fill="#fff"/><text x="142" y="83" text-anchor="middle" class="sans" font-size="38" font-weight="900" fill="#3B1F6B">4</text><text x="142" y="140" text-anchor="middle" class="sans caption" fill="#3B1F6B">small fish</text><text x="142" y="198" text-anchor="middle" class="sans tiny muted">consumer</text></g><path d="M1760 1860 L1830 1860" fill="none" stroke="#3B1F6B" stroke-width="8" stroke-linecap="round" stroke-linejoin="round" marker-end="url(#arrow)"/><g transform="translate(1850,1750)"><rect width="285" height="220" rx="38" fill="#FEF3C7" stroke="#C8F0ED" stroke-width="4" filter="url(#tinyShadow)"/><circle cx="142" cy="68" r="38" fill="#fff"/><text x="142" y="83" text-anchor="middle" class="sans" font-size="38" font-weight="900" fill="#3B1F6B">5</text><text x="142" y="140" text-anchor="middle" class="sans caption" fill="#3B1F6B">seal</text><text x="142" y="198" text-anchor="middle" class="sans tiny muted">consumer</text></g><path d="M2145 1860 L2215 1860" fill="none" stroke="#3B1F6B" stroke-width="8" stroke-linecap="round" stroke-linejoin="round" marker-end="url(#arrow)"/><g transform="translate(2235,1750)"><rect width="285" height="220" rx="38" fill="#D4F5F3" stroke="#C8F0ED" stroke-width="4" filter="url(#tinyShadow)"/><circle cx="142" cy="68" r="38" fill="#fff"/><text x="142" y="83" text-anchor="middle" class="sans" font-size="38" font-weight="900" fill="#3B1F6B">6</text><text x="142" y="140" text-anchor="middle" class="sans caption" fill="#3B1F6B">orca</text><text x="142" y="198" text-anchor="middle" class="sans tiny muted">consumer</text></g><g transform="translate(375,2490)"><rect width="780" height="320" rx="34" fill="#ecfccb" stroke="#bbf7d0" stroke-width="4" filter="url(#tinyShadow)"/><text x="42" y="68" class="sans cardTitle" fill="#3B1F6B">Decomposers</text><text x="42" y="126" class="sans caption muted">Fungi, bacteria, and worms</text><text x="42" y="174" class="sans caption muted">break down dead plants</text><text x="42" y="222" class="sans caption muted">and animals. Nutrients</text><text x="42" y="270" class="sans caption muted">return to soil and water.</text></g><g transform="translate(1395,2490)"><rect width="780" height="320" rx="34" fill="#fff" stroke="#C8F0ED" stroke-width="4" filter="url(#tinyShadow)"/><text x="42" y="68" class="sans cardTitle" fill="#3B1F6B">Food web reminder</text><text x="42" y="126" class="sans body muted">A food chain is a simple model.</text><text x="42" y="184" class="sans body muted">Real ecosystems have many</text><text x="42" y="242" class="sans body muted">connected chains.</text></g>  <g transform="translate(160,3070)">
    <rect x="0" y="0" width="2230" height="115" rx="36" fill="#ffffff" stroke="#C8F0ED" stroke-width="4"/>
    <text x="56" y="72" class="sans small muted">Little Lab Coats · Free science resource · Print in color when possible</text>
    <text x="2175" y="72" text-anchor="end" class="display" font-size="42" font-weight="900" fill="#3B1F6B">littlelabcoats.co</text>
  </g>
</svg>
