<svg xmlns="http://www.w3.org/2000/svg" width="2550" height="3300" viewBox="0 0 2550 3300" role="img" aria-labelledby="title desc">
  <title id="title">Parts of a Plant</title>
  <desc id="desc">Major parts and the jobs they do</desc>
  <defs>
    <linearGradient id="paperBg" x1="0" y1="0" x2="1" y2="1"><stop offset="0" stop-color="#f9fffe"/><stop offset=".52" stop-color="#ffffff"/><stop offset="1" stop-color="#f3e8ff"/></linearGradient>
    <linearGradient id="topWash" x1="0" y1="0" x2="1" y2="0"><stop offset="0" stop-color="#ff6b6b" stop-opacity=".22"/><stop offset=".50" stop-color="#4ecdc4" stop-opacity=".18"/><stop offset="1" stop-color="#5a3490" stop-opacity=".20"/></linearGradient>
    <filter id="softShadow" x="-15%" y="-15%" width="130%" height="130%"><feDropShadow dx="0" dy="16" stdDeviation="20" flood-color="#3b1f6b" flood-opacity=".14"/></filter>
    <filter id="tinyShadow" x="-20%" y="-20%" width="140%" height="140%"><feDropShadow dx="0" dy="8" stdDeviation="8" flood-color="#3b1f6b" flood-opacity=".12"/></filter>
    <marker id="arrow" markerWidth="18" markerHeight="18" refX="14" refY="6" orient="auto" markerUnits="strokeWidth"><path d="M2,2 L14,6 L2,10 Z" fill="#3B1F6B"/></marker>
    <marker id="arrowTeal" markerWidth="18" markerHeight="18" refX="14" refY="6" orient="auto" markerUnits="strokeWidth"><path d="M2,2 L14,6 L2,10 Z" fill="#35B8AF"/></marker>
    <style>
      .display{font-family:Georgia,'Times New Roman',serif} .sans{font-family:Arial,Helvetica,sans-serif} .navy{fill:#3B1F6B} .muted{fill:#5A7A78} .white{fill:#fff} .label{font-family:Arial,Helvetica,sans-serif;font-weight:900;letter-spacing:.03em} .small{font-size:32px} .body{font-size:42px} .caption{font-size:30px;font-weight:700} .titleText{font-size:96px;font-weight:900} .cardTitle{font-size:48px;font-weight:900} .tiny{font-size:26px}
    </style>
  </defs>
  <rect width="2550" height="3300" fill="url(#paperBg)"/>
  <rect width="2550" height="470" fill="url(#topWash)"/>
  <circle cx="230" cy="210" r="120" fill="#d4f5f3" opacity=".72"/><circle cx="2315" cy="270" r="145" fill="#ffe8e8" opacity=".72"/><circle cx="2105" cy="135" r="64" fill="#fef3c7" opacity=".75"/>
  <text x="1275" y="178" text-anchor="middle" class="display titleText navy">Parts of a Plant</text>
  <text x="1275" y="256" text-anchor="middle" class="sans body muted">Major parts and the jobs they do</text>
  <text x="1275" y="322" text-anchor="middle" class="sans small muted">Little Lab Coats free printable · personal/family/classroom use</text>
<g transform="translate(160,475)" filter="url(#softShadow)"><rect width="2230" height="2520" rx="58" fill="#fff" stroke="#c8f0ed" stroke-width="5"/></g><g transform="translate(820,760)"><line x1="420" y1="1520" x2="420" y2="545" stroke="#16a34a" stroke-width="38" stroke-linecap="round"/><path d="M420 920 C230 770 150 705 95 555 C250 555 370 645 420 760Z" fill="#22c55e" stroke="#15803d" stroke-width="8"/><path d="M420 1050 C615 870 735 805 880 775 C805 940 620 1055 420 1120Z" fill="#34d399" stroke="#15803d" stroke-width="8"/><path d="M420 650 C545 510 660 450 790 420 C748 570 600 690 420 720Z" fill="#22c55e" stroke="#15803d" stroke-width="8"/><ellipse cx="525.0" cy="420.0" rx="54" ry="92" fill="#ff6b6b" stroke="#be123c" stroke-width="5" transform="rotate(0 525.0 420.0)"/><ellipse cx="494.2" cy="494.2" rx="54" ry="92" fill="#ff6b6b" stroke="#be123c" stroke-width="5" transform="rotate(45 494.2 494.2)"/><ellipse cx="420.0" cy="525.0" rx="54" ry="92" fill="#ff6b6b" stroke="#be123c" stroke-width="5" transform="rotate(90 420.0 525.0)"/><ellipse cx="345.8" cy="494.2" rx="54" ry="92" fill="#ff6b6b" stroke="#be123c" stroke-width="5" transform="rotate(135 345.8 494.2)"/><ellipse cx="315.0" cy="420.0" rx="54" ry="92" fill="#ff6b6b" stroke="#be123c" stroke-width="5" transform="rotate(180 315.0 420.0)"/><ellipse cx="345.8" cy="345.8" rx="54" ry="92" fill="#ff6b6b" stroke="#be123c" stroke-width="5" transform="rotate(225 345.8 345.8)"/><ellipse cx="420.0" cy="315.0" rx="54" ry="92" fill="#ff6b6b" stroke="#be123c" stroke-width="5" transform="rotate(270 420.0 315.0)"/><ellipse cx="494.2" cy="345.8" rx="54" ry="92" fill="#ff6b6b" stroke="#be123c" stroke-width="5" transform="rotate(315 494.2 345.8)"/><circle cx="420" cy="420" r="72" fill="#fbbf24" stroke="#b45309" stroke-width="6"/><circle cx="645" cy="1168" r="78" fill="#ef4444" stroke="#991b1b" stroke-width="6"/><text x="645" y="1190" text-anchor="middle" class="sans" font-size="44" font-weight="900" fill="#fff">fruit</text><line x1="420" y1="1520" x2="420" y2="1745" stroke="#92400e" stroke-width="28" stroke-linecap="round"/><path d="M420 1588 C290 1650 250 1725 200 1810" stroke="#92400e" stroke-width="22" fill="none" stroke-linecap="round"/><path d="M420 1625 C560 1680 620 1760 700 1830" stroke="#92400e" stroke-width="22" fill="none" stroke-linecap="round"/><path d="M420 1690 C360 1780 350 1845 330 1900" stroke="#92400e" stroke-width="16" fill="none" stroke-linecap="round"/></g><path d="M1500 1048 C1380 990 1380 1080 1260 1130" fill="none" stroke="#3B1F6B" stroke-width="7" stroke-linecap="round" stroke-linejoin="round" marker-end="url(#arrow)"/><g transform="translate(1500,1070)"><rect width="560" height="150" rx="28" fill="#fff" stroke="#C8F0ED" stroke-width="4"/><text x="32" y="58" class="sans caption" fill="#3B1F6B">Flower</text><text x="32" y="112" class="sans tiny muted">Makes seeds after pollination</text></g><path d="M470 1458 C700 1400 700 1480 930 1530" fill="none" stroke="#3B1F6B" stroke-width="7" stroke-linecap="round" stroke-linejoin="round" marker-end="url(#arrow)"/><g transform="translate(470,1480)"><rect width="560" height="150" rx="28" fill="#fff" stroke="#C8F0ED" stroke-width="4"/><text x="32" y="58" class="sans caption" fill="#3B1F6B">Leaf</text><text x="32" y="112" class="sans tiny muted">Makes food using sunlight</text></g><path d="M1520 1688 C1380 1630 1380 1660 1240 1710" fill="none" stroke="#3B1F6B" stroke-width="7" stroke-linecap="round" stroke-linejoin="round" marker-end="url(#arrow)"/><g transform="translate(1520,1710)"><rect width="560" height="150" rx="28" fill="#fff" stroke="#C8F0ED" stroke-width="4"/><text x="32" y="58" class="sans caption" fill="#3B1F6B">Stem</text><text x="32" y="112" class="sans tiny muted">Holds plant up; moves water</text></g><path d="M1570 1958 C1502 1900 1502 1878 1435 1928" fill="none" stroke="#3B1F6B" stroke-width="7" stroke-linecap="round" stroke-linejoin="round" marker-end="url(#arrow)"/><g transform="translate(1570,1980)"><rect width="560" height="150" rx="28" fill="#fff" stroke="#C8F0ED" stroke-width="4"/><text x="32" y="58" class="sans caption" fill="#3B1F6B">Fruit</text><text x="32" y="112" class="sans tiny muted">Protects seeds</text></g><path d="M515 2523 C832 2465 832 2410 1150 2460" fill="none" stroke="#3B1F6B" stroke-width="7" stroke-linecap="round" stroke-linejoin="round" marker-end="url(#arrow)"/><g transform="translate(515,2545)"><rect width="560" height="150" rx="28" fill="#fff" stroke="#C8F0ED" stroke-width="4"/><text x="32" y="58" class="sans caption" fill="#3B1F6B">Roots</text><text x="32" y="112" class="sans tiny muted">Take in water; anchor plant</text></g><path d="M1510 2418 C1440 2360 1440 2205 1370 2255" fill="none" stroke="#3B1F6B" stroke-width="7" stroke-linecap="round" stroke-linejoin="round" marker-end="url(#arrow)"/><g transform="translate(1510,2440)"><rect width="560" height="150" rx="28" fill="#fff" stroke="#C8F0ED" stroke-width="4"/><text x="32" y="58" class="sans caption" fill="#3B1F6B">Seeds</text><text x="32" y="112" class="sans tiny muted">Grow into new plants</text></g>  <g transform="translate(160,3070)">
    <rect x="0" y="0" width="2230" height="115" rx="36" fill="#ffffff" stroke="#C8F0ED" stroke-width="4"/>
    <text x="56" y="72" class="sans small muted">Little Lab Coats · Free science resource · Print in color when possible</text>
    <text x="2175" y="72" text-anchor="end" class="display" font-size="42" font-weight="900" fill="#3B1F6B">littlelabcoats.co</text>
  </g>
</svg>
