<svg xmlns="http://www.w3.org/2000/svg" width="1200" height="675" viewBox="0 0 1200 675"><defs>
      <linearGradient id="bg" x1="0" y1="0" x2="1" y2="1"><stop offset="0" stop-color="#ffffff"/><stop offset="0.55" stop-color="#FFEDD5"/><stop offset="1" stop-color="#E8F8F6"/></linearGradient>
      <filter id="shadow" x="-20%" y="-20%" width="140%" height="150%"><feDropShadow dx="0" dy="16" stdDeviation="18" flood-color="#26324f" flood-opacity=".18"/></filter>
      <marker id="arrow" markerWidth="12" markerHeight="12" refX="10" refY="6" orient="auto"><path d="M2,2 L10,6 L2,10 Z" fill="#F97316"/></marker>
    </defs><rect width="1200" height="675" rx="36" fill="url(#bg)"/><circle cx="1060" cy="105" r="86" fill="#F97316" opacity=".13"/><circle cx="130" cy="565" r="120" fill="#4ECDC4" opacity=".12"/><rect x="70" y="64" width="1060" height="540" rx="34" fill="#fff" opacity=".72" filter="url(#shadow)"/><circle cx="250" cy="170" r="54" fill="#FFD166"/><circle cx="855" cy="115" r="54" fill="#FFD166"/><rect x="545" y="280" width="34" height="178" rx="17" fill="#92400E"/><circle cx="562" cy="258" r="46" fill="#22C55E"/><ellipse cx="500" cy="485" rx="160" ry="28" fill="#475569" opacity=".35"/><ellipse cx="680" cy="485" rx="95" ry="22" fill="#475569" opacity=".25"/><path d="M250 170 L500 485" stroke="#FFD166" stroke-width="6" opacity=".55"/><path d="M855 115 L680 485" stroke="#FFD166" stroke-width="6" opacity=".55"/><rect x="250.0" y="246" width="130" height="48" rx="24" fill="#FFFFFF" stroke="#4ECDC4" stroke-width="3"/><text x="315" y="280" text-anchor="middle" font-family="Arial, Helvetica, sans-serif" font-size="20" font-weight="800" fill="#24324B">morning</text><rect x="795.0" y="201" width="130" height="48" rx="24" fill="#FFFFFF" stroke="#4ECDC4" stroke-width="3"/><text x="860" y="235" text-anchor="middle" font-family="Arial, Helvetica, sans-serif" font-size="20" font-weight="800" fill="#24324B">later</text><rect x="485.5" y="521" width="229" height="48" rx="24" fill="#FFFFFF" stroke="#4ECDC4" stroke-width="3"/><text x="600" y="555" text-anchor="middle" font-family="Arial, Helvetica, sans-serif" font-size="20" font-weight="800" fill="#24324B">compare shadows</text><text x="600" y="92" text-anchor="middle" font-family="Arial, Helvetica, sans-serif" font-size="42" font-weight="900" fill="#24324B">Shadow Clock Mini Lab</text><text x="600" y="640" text-anchor="middle" font-family="Arial, Helvetica, sans-serif" font-size="25" font-weight="700" fill="#3B5560">The Sun’s position in the sky appears to change, and shadows can help us observe that daytime pa…</text></svg>