<svg xmlns="http://www.w3.org/2000/svg" width="1200" height="675" viewBox="0 0 1200 675"><defs>
      <linearGradient id="bg" x1="0" y1="0" x2="1" y2="1"><stop offset="0" stop-color="#ffffff"/><stop offset="0.55" stop-color="#F3E8FF"/><stop offset="1" stop-color="#E8F8F6"/></linearGradient>
      <filter id="shadow" x="-20%" y="-20%" width="140%" height="150%"><feDropShadow dx="0" dy="16" stdDeviation="18" flood-color="#26324f" flood-opacity=".18"/></filter>
      <marker id="arrow" markerWidth="12" markerHeight="12" refX="10" refY="6" orient="auto"><path d="M2,2 L10,6 L2,10 Z" fill="#7C3AED"/></marker>
    </defs><rect width="1200" height="675" rx="36" fill="url(#bg)"/><circle cx="1060" cy="105" r="86" fill="#7C3AED" opacity=".13"/><circle cx="130" cy="565" r="120" fill="#4ECDC4" opacity=".12"/><rect x="70" y="64" width="1060" height="540" rx="34" fill="#fff" opacity=".72" filter="url(#shadow)"/><rect x="245" y="270" width="190" height="220" rx="28" fill="#FDE68A" stroke="#B45309" stroke-width="8" transform="rotate(-7 340 380)"/><rect x="735" y="250" width="210" height="240" rx="28" fill="#DCFCE7" stroke="#16A34A" stroke-width="8"/><g stroke="#EF4444" stroke-width="14" stroke-linecap="round"><path d="M290 205 L330 415"/><path d="M350 195 L360 415"/><path d="M405 215 L380 420"/></g><g stroke="#7C3AED" stroke-width="14" stroke-linecap="round"><path d="M780 170 L800 430"/><path d="M845 165 L850 430"/><path d="M910 180 L890 430"/></g><path d="M490 370 H690" stroke="#7C3AED" stroke-width="10" marker-end="url(#arrow)"/><rect x="270.0" y="514" width="130" height="48" rx="24" fill="#FFFFFF" stroke="#4ECDC4" stroke-width="3"/><text x="335" y="548" text-anchor="middle" font-family="Arial, Helvetica, sans-serif" font-size="20" font-weight="800" fill="#24324B">test</text><rect x="771.0" y="514" width="138" height="48" rx="24" fill="#FFFFFF" stroke="#4ECDC4" stroke-width="3"/><text x="840" y="548" text-anchor="middle" font-family="Arial, Helvetica, sans-serif" font-size="20" font-weight="800" fill="#24324B">redesign</text><rect x="531.0" y="221" width="138" height="48" rx="24" fill="#FFFFFF" stroke="#4ECDC4" stroke-width="3"/><text x="600" y="255" text-anchor="middle" font-family="Arial, Helvetica, sans-serif" font-size="20" font-weight="800" fill="#24324B">criteria</text><text x="600" y="92" text-anchor="middle" font-family="Arial, Helvetica, sans-serif" font-size="42" font-weight="900" fill="#24324B">Pencil Holder Redesign</text><text x="600" y="640" text-anchor="middle" font-family="Arial, Helvetica, sans-serif" font-size="25" font-weight="700" fill="#3B5560">A good engineering solution matches the problem, criteria, and evidence from tests.</text></svg>