<svg xmlns="http://www.w3.org/2000/svg" width="1200" height="675" viewBox="0 0 1200 675"><defs>
      <linearGradient id="bg" x1="0" y1="0" x2="1" y2="1"><stop offset="0" stop-color="#ffffff"/><stop offset="0.55" stop-color="#FFF7D6"/><stop offset="1" stop-color="#E8F8F6"/></linearGradient>
      <filter id="shadow" x="-20%" y="-20%" width="140%" height="150%"><feDropShadow dx="0" dy="16" stdDeviation="18" flood-color="#26324f" flood-opacity=".18"/></filter>
      <marker id="arrow" markerWidth="12" markerHeight="12" refX="10" refY="6" orient="auto"><path d="M2,2 L10,6 L2,10 Z" fill="#F59E0B"/></marker>
    </defs><rect width="1200" height="675" rx="36" fill="url(#bg)"/><circle cx="1060" cy="105" r="86" fill="#F59E0B" opacity=".13"/><circle cx="130" cy="565" r="120" fill="#4ECDC4" opacity=".12"/><rect x="70" y="64" width="1060" height="540" rx="34" fill="#fff" opacity=".72" filter="url(#shadow)"/><circle cx="910" cy="160" r="72" fill="#FFD166"/><g stroke="#FFD166" stroke-width="16" stroke-linecap="round"><path d="M910 48v40M910 232v40M798 160h40M982 160h40M830 80l28 28M990 80l-28 28M830 240l28-28M990 240l-28-28"/></g><rect x="190" y="300" width="220" height="160" rx="22" fill="#1F2937"/><rect x="470" y="300" width="220" height="160" rx="22" fill="#FDE68A"/><rect x="750" y="300" width="220" height="160" rx="22" fill="#BFDBFE"/><text x="300" y="505" text-anchor="middle" font-family="Arial, Helvetica, sans-serif" font-size="24" font-weight="700" fill="#24324B">dark color</text><text x="580" y="505" text-anchor="middle" font-family="Arial, Helvetica, sans-serif" font-size="24" font-weight="700" fill="#24324B">light color</text><text x="860" y="505" text-anchor="middle" font-family="Arial, Helvetica, sans-serif" font-size="24" font-weight="700" fill="#24324B">shade</text><path d="M180 238 H1020" stroke="#D1D5DB" stroke-width="6" stroke-dasharray="18 16"/><text x="600" y="92" text-anchor="middle" font-family="Arial, Helvetica, sans-serif" font-size="42" font-weight="900" fill="#24324B">Sunshine Color Watch</text><text x="600" y="640" text-anchor="middle" font-family="Arial, Helvetica, sans-serif" font-size="25" font-weight="700" fill="#3B5560">Sunlight warms Earth’s surfaces, and some surfaces feel warmer than others after sitting in the …</text></svg>