<svg xmlns="http://www.w3.org/2000/svg" width="1200" height="675" viewBox="0 0 1200 675"><defs>
      <linearGradient id="bg" x1="0" y1="0" x2="1" y2="1"><stop offset="0" stop-color="#ffffff"/><stop offset="0.55" stop-color="#F3E8FF"/><stop offset="1" stop-color="#E8F8F6"/></linearGradient>
      <filter id="shadow" x="-20%" y="-20%" width="140%" height="150%"><feDropShadow dx="0" dy="16" stdDeviation="18" flood-color="#26324f" flood-opacity=".18"/></filter>
      <marker id="arrow" markerWidth="12" markerHeight="12" refX="10" refY="6" orient="auto"><path d="M2,2 L10,6 L2,10 Z" fill="#7B2FBE"/></marker>
    </defs><rect width="1200" height="675" rx="36" fill="url(#bg)"/><circle cx="1060" cy="105" r="86" fill="#7B2FBE" opacity=".13"/><circle cx="130" cy="565" r="120" fill="#4ECDC4" opacity=".12"/><rect x="70" y="64" width="1060" height="540" rx="34" fill="#fff" opacity=".72" filter="url(#shadow)"/><path d="M330 275 h540" stroke="#24324B" stroke-width="7" stroke-dasharray="16 10"/><path d="M270 230 L390 270 L350 410 L225 365 Z" fill="#FFFFFF" stroke="#7B2FBE" stroke-width="10"/><path d="M930 230 L810 270 L850 410 L975 365 Z" fill="#FFFFFF" stroke="#7B2FBE" stroke-width="10"/><path d="M450 220 q70 80 0 160 M520 205 q95 125 0 250 M750 220 q-70 80 0 160 M680 205 q-95 125 0 250" stroke="#4ECDC4" stroke-width="9" fill="none" stroke-linecap="round"/><rect x="205.0" y="471" width="130" height="48" rx="24" fill="#FFFFFF" stroke="#4ECDC4" stroke-width="3"/><text x="270" y="505" text-anchor="middle" font-family="Arial, Helvetica, sans-serif" font-size="20" font-weight="800" fill="#24324B">speak</text><rect x="518.0" y="146" width="164" height="48" rx="24" fill="#FFFFFF" stroke="#4ECDC4" stroke-width="3"/><text x="600" y="180" text-anchor="middle" font-family="Arial, Helvetica, sans-serif" font-size="20" font-weight="800" fill="#24324B">vibrations</text><rect x="865.0" y="471" width="130" height="48" rx="24" fill="#FFFFFF" stroke="#4ECDC4" stroke-width="3"/><text x="930" y="505" text-anchor="middle" font-family="Arial, Helvetica, sans-serif" font-size="20" font-weight="800" fill="#24324B">listen</text><text x="600" y="92" text-anchor="middle" font-family="Arial, Helvetica, sans-serif" font-size="42" font-weight="900" fill="#24324B">Cup-String Sound Sender</text><text x="600" y="640" text-anchor="middle" font-family="Arial, Helvetica, sans-serif" font-size="25" font-weight="700" fill="#3B5560">Sound starts with vibrations, and vibrations can carry information from one place to another.</text></svg>