<svg xmlns="http://www.w3.org/2000/svg" width="1200" height="675" viewBox="0 0 1200 675"><defs>
      <linearGradient id="bg" x1="0" y1="0" x2="1" y2="1"><stop offset="0" stop-color="#ffffff"/><stop offset="0.55" stop-color="#E0F2FE"/><stop offset="1" stop-color="#E8F8F6"/></linearGradient>
      <filter id="shadow" x="-20%" y="-20%" width="140%" height="150%"><feDropShadow dx="0" dy="16" stdDeviation="18" flood-color="#26324f" flood-opacity=".18"/></filter>
      <marker id="arrow" markerWidth="12" markerHeight="12" refX="10" refY="6" orient="auto"><path d="M2,2 L10,6 L2,10 Z" fill="#0EA5E9"/></marker>
    </defs><rect width="1200" height="675" rx="36" fill="url(#bg)"/><circle cx="1060" cy="105" r="86" fill="#0EA5E9" opacity=".13"/><circle cx="130" cy="565" r="120" fill="#4ECDC4" opacity=".12"/><rect x="70" y="64" width="1060" height="540" rx="34" fill="#fff" opacity=".72" filter="url(#shadow)"/><rect x="230" y="145" width="460" height="330" rx="26" fill="#E0F2FE" stroke="#2563EB" stroke-width="10"/><path d="M460 145 v330 M230 310 h460" stroke="#2563EB" stroke-width="8"/><circle cx="340" cy="235" r="46" fill="#FFD166"/><path d="M505 240 q32-60 88-15 q55-20 86 35 q52 5 52 55 q0 52-65 52 H500 q-58 0-58-48 q0-46 63-79Z" fill="#fff" stroke="#94A3B8" stroke-width="7"/><path d="M548 390 l-18 44 M610 390 l-18 44 M672 390 l-18 44" stroke="#38BDF8" stroke-width="9" stroke-linecap="round"/><rect x="760" y="205" width="250" height="230" rx="26" fill="#fff" stroke="#CBD5E1" stroke-width="6"/><text x="885" y="255" text-anchor="middle" font-family="Arial, Helvetica, sans-serif" font-size="27" font-weight="700" fill="#24324B">3-day chart</text><text x="830" y="315" text-anchor="middle" font-family="Arial, Helvetica, sans-serif" font-size="22" font-weight="700" fill="#24324B">sun</text><text x="885" y="365" text-anchor="middle" font-family="Arial, Helvetica, sans-serif" font-size="22" font-weight="700" fill="#24324B">cloud</text><text x="942" y="415" text-anchor="middle" font-family="Arial, Helvetica, sans-serif" font-size="22" font-weight="700" fill="#24324B">rain</text><text x="600" y="92" text-anchor="middle" font-family="Arial, Helvetica, sans-serif" font-size="42" font-weight="900" fill="#24324B">Weather Window Station</text><text x="600" y="640" text-anchor="middle" font-family="Arial, Helvetica, sans-serif" font-size="25" font-weight="700" fill="#3B5560">Weather is what the sky and air are like today, and daily observations help us notice patterns.</text></svg>