<svg xmlns="http://www.w3.org/2000/svg" width="1200" height="675" viewBox="0 0 1200 675"><defs>
      <linearGradient id="bg" x1="0" y1="0" x2="1" y2="1"><stop offset="0" stop-color="#ffffff"/><stop offset="0.55" stop-color="#E3FAF5"/><stop offset="1" stop-color="#E8F8F6"/></linearGradient>
      <filter id="shadow" x="-20%" y="-20%" width="140%" height="150%"><feDropShadow dx="0" dy="16" stdDeviation="18" flood-color="#26324f" flood-opacity=".18"/></filter>
      <marker id="arrow" markerWidth="12" markerHeight="12" refX="10" refY="6" orient="auto"><path d="M2,2 L10,6 L2,10 Z" fill="#16A085"/></marker>
    </defs><rect width="1200" height="675" rx="36" fill="url(#bg)"/><circle cx="1060" cy="105" r="86" fill="#16A085" opacity=".13"/><circle cx="130" cy="565" r="120" fill="#4ECDC4" opacity=".12"/><rect x="70" y="64" width="1060" height="540" rx="34" fill="#fff" opacity=".72" filter="url(#shadow)"/><ellipse cx="600" cy="445" rx="360" ry="92" fill="#A7F3D0"/><rect x="455" y="270" width="290" height="190" rx="28" fill="#FDE68A" stroke="#B45309" stroke-width="8"/><polygon points="425,285 600,150 775,285" fill="#EF4444"/><circle cx="570" cy="365" r="42" fill="#F59E0B"/><circle cx="635" cy="365" r="42" fill="#F59E0B"/><ellipse cx="603" cy="410" rx="74" ry="58" fill="#F59E0B"/><circle cx="572" cy="354" r="7"/><circle cx="632" cy="354" r="7"/><path d="M585 395 Q603 410 622 395" stroke="#24324B" stroke-width="5" fill="none"/><rect x="175.0" y="211" width="130" height="48" rx="24" fill="#FFFFFF" stroke="#4ECDC4" stroke-width="3"/><text x="240" y="245" text-anchor="middle" font-family="Arial, Helvetica, sans-serif" font-size="20" font-weight="800" fill="#24324B">food</text><rect x="220.0" y="436" width="130" height="48" rx="24" fill="#FFFFFF" stroke="#4ECDC4" stroke-width="3"/><text x="285" y="470" text-anchor="middle" font-family="Arial, Helvetica, sans-serif" font-size="20" font-weight="800" fill="#24324B">water</text><rect x="845.0" y="211" width="130" height="48" rx="24" fill="#FFFFFF" stroke="#4ECDC4" stroke-width="3"/><text x="910" y="245" text-anchor="middle" font-family="Arial, Helvetica, sans-serif" font-size="20" font-weight="800" fill="#24324B">air</text><rect x="845.0" y="436" width="130" height="48" rx="24" fill="#FFFFFF" stroke="#4ECDC4" stroke-width="3"/><text x="910" y="470" text-anchor="middle" font-family="Arial, Helvetica, sans-serif" font-size="20" font-weight="800" fill="#24324B">shelter</text><text x="600" y="92" text-anchor="middle" font-family="Arial, Helvetica, sans-serif" font-size="42" font-weight="900" fill="#24324B">Animal Home Checkup</text><text x="600" y="640" text-anchor="middle" font-family="Arial, Helvetica, sans-serif" font-size="25" font-weight="700" fill="#3B5560">Animals survive when their basic needs are met in the places they live.</text></svg>