<svg xmlns="http://www.w3.org/2000/svg" width="1200" height="675" viewBox="0 0 1200 675"><defs>
      <linearGradient id="bg" x1="0" y1="0" x2="1" y2="1"><stop offset="0" stop-color="#ffffff"/><stop offset="0.55" stop-color="#E3FAF5"/><stop offset="1" stop-color="#E8F8F6"/></linearGradient>
      <filter id="shadow" x="-20%" y="-20%" width="140%" height="150%"><feDropShadow dx="0" dy="16" stdDeviation="18" flood-color="#26324f" flood-opacity=".18"/></filter>
      <marker id="arrow" markerWidth="12" markerHeight="12" refX="10" refY="6" orient="auto"><path d="M2,2 L10,6 L2,10 Z" fill="#16A085"/></marker>
    </defs><rect width="1200" height="675" rx="36" fill="url(#bg)"/><circle cx="1060" cy="105" r="86" fill="#16A085" opacity=".13"/><circle cx="130" cy="565" r="120" fill="#4ECDC4" opacity=".12"/><rect x="70" y="64" width="1060" height="540" rx="34" fill="#fff" opacity=".72" filter="url(#shadow)"/><rect x="190" y="220" width="320" height="250" rx="36" fill="#FDE68A"/><rect x="690" y="260" width="300" height="210" rx="36" fill="#DBEAFE"/><circle cx="350" cy="330" r="72" fill="#B45309"/><circle cx="305" cy="265" r="35" fill="#B45309"/><circle cx="395" cy="265" r="35" fill="#B45309"/><circle cx="330" cy="318" r="9"/><circle cx="372" cy="318" r="9"/><circle cx="350" cy="352" r="18" fill="#FDE68A"/><circle cx="840" cy="352" r="58" fill="#B45309"/><circle cx="805" cy="300" r="28" fill="#B45309"/><circle cx="875" cy="300" r="28" fill="#B45309"/><circle cx="823" cy="342" r="8"/><circle cx="858" cy="342" r="8"/><circle cx="840" cy="370" r="15" fill="#FDE68A"/><circle cx="390" cy="370" r="18" fill="#FFFFFF"/><circle cx="875" cy="390" r="15" fill="#FFFFFF"/><path d="M520 355 H670" stroke="#16A085" stroke-width="10" marker-end="url(#arrow)"/><rect x="285.0" y="486" width="130" height="48" rx="24" fill="#FFFFFF" stroke="#4ECDC4" stroke-width="3"/><text x="350" y="520" text-anchor="middle" font-family="Arial, Helvetica, sans-serif" font-size="20" font-weight="800" fill="#24324B">parent</text><rect x="764.5" y="486" width="151" height="48" rx="24" fill="#FFFFFF" stroke="#4ECDC4" stroke-width="3"/><text x="840" y="520" text-anchor="middle" font-family="Arial, Helvetica, sans-serif" font-size="20" font-weight="800" fill="#24324B">offspring</text><rect x="498.5" y="201" width="203" height="48" rx="24" fill="#FFFFFF" stroke="#4ECDC4" stroke-width="3"/><text x="600" y="235" text-anchor="middle" font-family="Arial, Helvetica, sans-serif" font-size="20" font-weight="800" fill="#24324B">shared trait?</text><text x="600" y="92" text-anchor="middle" font-family="Arial, Helvetica, sans-serif" font-size="42" font-weight="900" fill="#24324B">Family Trait Detectives</text><text x="600" y="640" text-anchor="middle" font-family="Arial, Helvetica, sans-serif" font-size="25" font-weight="700" fill="#3B5560">Young animals and plants often look like their parents, but they are not exact copies.</text></svg>