<svg xmlns="http://www.w3.org/2000/svg" width="900" height="360" viewBox="0 0 900 360"><defs>
      <linearGradient id="bg" x1="0" y1="0" x2="1" y2="1"><stop offset="0" stop-color="#ffffff"/><stop offset="0.6" stop-color="#FFF7D6"/><stop offset="1" stop-color="#E8F8F6"/></linearGradient>
      <filter id="shadow" x="-20%" y="-20%" width="140%" height="150%"><feDropShadow dx="0" dy="10" stdDeviation="12" flood-color="#26324f" flood-opacity=".13"/></filter>
      <marker id="arrow" markerWidth="12" markerHeight="12" refX="10" refY="6" orient="auto"><path d="M2,2 L10,6 L2,10 Z" fill="#F59E0B"/></marker>
    </defs><rect width="900" height="360" rx="28" fill="url(#bg)"/><rect x="36" y="34" width="828" height="292" rx="28" fill="#fff" opacity=".82" stroke="#F59E0B" stroke-width="3"/><text x="450" y="84" text-anchor="middle" font-family="Arial, Helvetica, sans-serif" font-size="30" font-weight="900" fill="#24324B">Sun and shade comparison</text><rect x="75" y="122" width="210" height="156" rx="24" fill="#FFFFFF" stroke="#F59E0B" stroke-width="4" filter="url(#shadow)"/><circle cx="180" cy="175" r="42" fill="#F59E0B"/><text x="180" y="191" text-anchor="middle" font-family="Arial, Helvetica, sans-serif" font-size="42" font-weight="900" fill="#fff">1</text><text x="180" y="238" text-anchor="middle" font-family="Arial, Helvetica, sans-serif" font-size="21" font-weight="800" fill="#24324B"><tspan x="180" dy="0">Compare sunny and</tspan><tspan x="180" dy="26">shady spots</tspan></text><path d="M298 200 H332" stroke="#F59E0B" stroke-width="7" marker-end="url(#arrow)" stroke-linecap="round"/><rect x="345" y="122" width="210" height="156" rx="24" fill="#FFFFFF" stroke="#F59E0B" stroke-width="4" filter="url(#shadow)"/><circle cx="450" cy="175" r="42" fill="#F59E0B"/><text x="450" y="191" text-anchor="middle" font-family="Arial, Helvetica, sans-serif" font-size="42" font-weight="900" fill="#fff">2</text><text x="450" y="238" text-anchor="middle" font-family="Arial, Helvetica, sans-serif" font-size="21" font-weight="800" fill="#24324B"><tspan x="450" dy="0">Notice light vs dark</tspan><tspan x="450" dy="26">surfaces</tspan></text><path d="M568 200 H602" stroke="#F59E0B" stroke-width="7" marker-end="url(#arrow)" stroke-linecap="round"/><rect x="615" y="122" width="210" height="156" rx="24" fill="#FFFFFF" stroke="#F59E0B" stroke-width="4" filter="url(#shadow)"/><circle cx="720" cy="175" r="42" fill="#F59E0B"/><text x="720" y="191" text-anchor="middle" font-family="Arial, Helvetica, sans-serif" font-size="42" font-weight="900" fill="#fff">3</text><text x="720" y="238" text-anchor="middle" font-family="Arial, Helvetica, sans-serif" font-size="21" font-weight="800" fill="#24324B"><tspan x="720" dy="0">Use safe touch</tspan><tspan x="720" dy="26">observations</tspan></text></svg>