<svg xmlns="http://www.w3.org/2000/svg" width="1200" height="675" viewBox="0 0 1200 675"><defs>
      <linearGradient id="bg" x1="0" y1="0" x2="1" y2="1"><stop offset="0" stop-color="#ffffff"/><stop offset="0.55" stop-color="#F3E8FF"/><stop offset="1" stop-color="#E8F8F6"/></linearGradient>
      <filter id="shadow" x="-20%" y="-20%" width="140%" height="150%"><feDropShadow dx="0" dy="16" stdDeviation="18" flood-color="#26324f" flood-opacity=".18"/></filter>
      <marker id="arrow" markerWidth="12" markerHeight="12" refX="10" refY="6" orient="auto"><path d="M2,2 L10,6 L2,10 Z" fill="#7B2FBE"/></marker>
    </defs><rect width="1200" height="675" rx="36" fill="url(#bg)"/><circle cx="1060" cy="105" r="86" fill="#7B2FBE" opacity=".13"/><circle cx="130" cy="565" r="120" fill="#4ECDC4" opacity=".12"/><rect x="70" y="64" width="1060" height="540" rx="34" fill="#fff" opacity=".72" filter="url(#shadow)"/><polygon points="170,470 760,470 760,405 170,405" fill="#E6F6FF"/><polygon points="230,420 730,250 760,315 260,485" fill="#7B2FBE" opacity=".82"/><circle cx="455" cy="360" r="45" fill="#FF6B6B"/><circle cx="430" cy="405" r="16" fill="#24324B"/><circle cx="490" cy="405" r="16" fill="#24324B"/><path d="M210 515 H850" stroke="#24324B" stroke-width="8" stroke-linecap="round"/><path d="M380 506 v34 M560 506 v34 M760 506 v34" stroke="#FFB703" stroke-width="8"/><rect x="141.5" y="150" width="177" height="48" rx="24" fill="#FFFFFF" stroke="#4ECDC4" stroke-width="3"/><text x="230" y="184" text-anchor="middle" font-family="Arial, Helvetica, sans-serif" font-size="20" font-weight="800" fill="#24324B">gentle push</text><rect x="458.5" y="118" width="203" height="48" rx="24" fill="#FFFFFF" stroke="#4ECDC4" stroke-width="3"/><text x="560" y="152" text-anchor="middle" font-family="Arial, Helvetica, sans-serif" font-size="20" font-weight="800" fill="#24324B">stronger push</text><rect x="801.5" y="150" width="177" height="48" rx="24" fill="#FFFFFF" stroke="#4ECDC4" stroke-width="3"/><text x="890" y="184" text-anchor="middle" font-family="Arial, Helvetica, sans-serif" font-size="20" font-weight="800" fill="#24324B">higher ramp</text><text x="600" y="92" text-anchor="middle" font-family="Arial, Helvetica, sans-serif" font-size="42" font-weight="900" fill="#24324B">Ramp Roll Rescue</text><text x="600" y="640" text-anchor="middle" font-family="Arial, Helvetica, sans-serif" font-size="25" font-weight="700" fill="#3B5560">A push can start an object moving, and changing the push or ramp can change how far it goes.</text></svg>