<svg xmlns="http://www.w3.org/2000/svg" width="1200" height="675" viewBox="0 0 1200 675"><defs>
      <linearGradient id="bg" x1="0" y1="0" x2="1" y2="1"><stop offset="0" stop-color="#ffffff"/><stop offset="0.55" stop-color="#F3E8FF"/><stop offset="1" stop-color="#E8F8F6"/></linearGradient>
      <filter id="shadow" x="-20%" y="-20%" width="140%" height="150%"><feDropShadow dx="0" dy="16" stdDeviation="18" flood-color="#26324f" flood-opacity=".18"/></filter>
      <marker id="arrow" markerWidth="12" markerHeight="12" refX="10" refY="6" orient="auto"><path d="M2,2 L10,6 L2,10 Z" fill="#7C3AED"/></marker>
    </defs><rect width="1200" height="675" rx="36" fill="url(#bg)"/><circle cx="1060" cy="105" r="86" fill="#7C3AED" opacity=".13"/><circle cx="130" cy="565" r="120" fill="#4ECDC4" opacity=".12"/><rect x="70" y="64" width="1060" height="540" rx="34" fill="#fff" opacity=".72" filter="url(#shadow)"/><rect x="205" y="470" width="145" height="85" rx="16" fill="#94A3B8"/><rect x="850" y="470" width="145" height="85" rx="16" fill="#94A3B8"/><path d="M315 470 C460 335 720 335 875 470" fill="none" stroke="#7C3AED" stroke-width="30" stroke-linecap="round"/><path d="M365 470 L450 390 L535 470 L620 390 L705 470 L790 390 L855 470" fill="none" stroke="#FFFFFF" stroke-width="10" stroke-linecap="round"/><circle cx="600" cy="350" r="45" fill="#F59E0B"/><circle cx="565" cy="318" r="21" fill="#F59E0B"/><circle cx="635" cy="318" r="21" fill="#F59E0B"/><path d="M580 360 Q600 378 620 360" stroke="#24324B" stroke-width="5" fill="none"/><rect x="472.5" y="151" width="255" height="48" rx="24" fill="#FFFFFF" stroke="#4ECDC4" stroke-width="3"/><text x="600" y="185" text-anchor="middle" font-family="Arial, Helvetica, sans-serif" font-size="20" font-weight="800" fill="#24324B">paper bridge test</text><rect x="245.0" y="266" width="130" height="48" rx="24" fill="#FFFFFF" stroke="#4ECDC4" stroke-width="3"/><text x="310" y="300" text-anchor="middle" font-family="Arial, Helvetica, sans-serif" font-size="20" font-weight="800" fill="#24324B">build</text><rect x="825.0" y="266" width="130" height="48" rx="24" fill="#FFFFFF" stroke="#4ECDC4" stroke-width="3"/><text x="890" y="300" text-anchor="middle" font-family="Arial, Helvetica, sans-serif" font-size="20" font-weight="800" fill="#24324B">improve</text><text x="600" y="92" text-anchor="middle" font-family="Arial, Helvetica, sans-serif" font-size="42" font-weight="900" fill="#24324B">Paper Bridge Rescue</text><text x="600" y="640" text-anchor="middle" font-family="Arial, Helvetica, sans-serif" font-size="25" font-weight="700" fill="#3B5560">Engineers solve problems by asking what is needed, building a model, testing it, and making it b…</text></svg>