<svg xmlns="http://www.w3.org/2000/svg" width="1200" height="675" viewBox="0 0 1200 675"><defs>
      <linearGradient id="bg" x1="0" y1="0" x2="1" y2="1"><stop offset="0" stop-color="#ffffff"/><stop offset="0.55" stop-color="#DCFCE7"/><stop offset="1" stop-color="#E8F8F6"/></linearGradient>
      <filter id="shadow" x="-20%" y="-20%" width="140%" height="150%"><feDropShadow dx="0" dy="16" stdDeviation="18" flood-color="#26324f" flood-opacity=".18"/></filter>
      <marker id="arrow" markerWidth="12" markerHeight="12" refX="10" refY="6" orient="auto"><path d="M2,2 L10,6 L2,10 Z" fill="#0F766E"/></marker>
    </defs><rect width="1200" height="675" rx="36" fill="url(#bg)"/><circle cx="1060" cy="105" r="86" fill="#0F766E" opacity=".13"/><circle cx="130" cy="565" r="120" fill="#4ECDC4" opacity=".12"/><rect x="70" y="64" width="1060" height="540" rx="34" fill="#fff" opacity=".72" filter="url(#shadow)"/><circle cx="360" cy="330" r="145" fill="#38BDF8"/><path d="M260 300 q80-90 180-30 q-12 60-82 75 q-50 22-98-45Z" fill="#22C55E"/><path d="M410 390 q55-50 95 15 q-55 70-128 50 q-20-35 33-65Z" fill="#22C55E"/><rect x="630" y="225" width="330" height="230" rx="28" fill="#FEF3C7" stroke="#D97706" stroke-width="8"/><path d="M650 265 h290" stroke="#D97706" stroke-width="6"/><rect x="670.0" y="301" width="130" height="48" rx="24" fill="#FFFFFF" stroke="#4ECDC4" stroke-width="3"/><text x="735" y="335" text-anchor="middle" font-family="Arial, Helvetica, sans-serif" font-size="20" font-weight="800" fill="#24324B">land</text><rect x="815.0" y="301" width="130" height="48" rx="24" fill="#FFFFFF" stroke="#4ECDC4" stroke-width="3"/><text x="880" y="335" text-anchor="middle" font-family="Arial, Helvetica, sans-serif" font-size="20" font-weight="800" fill="#24324B">water</text><rect x="670.0" y="391" width="130" height="48" rx="24" fill="#FFFFFF" stroke="#4ECDC4" stroke-width="3"/><text x="735" y="425" text-anchor="middle" font-family="Arial, Helvetica, sans-serif" font-size="20" font-weight="800" fill="#24324B">air</text><rect x="778.5" y="391" width="203" height="48" rx="24" fill="#FFFFFF" stroke="#4ECDC4" stroke-width="3"/><text x="880" y="425" text-anchor="middle" font-family="Arial, Helvetica, sans-serif" font-size="20" font-weight="800" fill="#24324B">living things</text><text x="600" y="92" text-anchor="middle" font-family="Arial, Helvetica, sans-serif" font-size="42" font-weight="900" fill="#24324B">Earth Treasure Sort</text><text x="600" y="640" text-anchor="middle" font-family="Arial, Helvetica, sans-serif" font-size="25" font-weight="700" fill="#3B5560">People use Earth materials every day, and small helper actions can protect the places living thi…</text></svg>