<svg xmlns="http://www.w3.org/2000/svg" width="1200" height="675" viewBox="0 0 1200 675"><defs>
      <linearGradient id="bg" x1="0" y1="0" x2="1" y2="1"><stop offset="0" stop-color="#ffffff"/><stop offset="0.55" stop-color="#E8F8E9"/><stop offset="1" stop-color="#E8F8F6"/></linearGradient>
      <filter id="shadow" x="-20%" y="-20%" width="140%" height="150%"><feDropShadow dx="0" dy="16" stdDeviation="18" flood-color="#26324f" flood-opacity=".18"/></filter>
      <marker id="arrow" markerWidth="12" markerHeight="12" refX="10" refY="6" orient="auto"><path d="M2,2 L10,6 L2,10 Z" fill="#2F9E44"/></marker>
    </defs><rect width="1200" height="675" rx="36" fill="url(#bg)"/><circle cx="1060" cy="105" r="86" fill="#2F9E44" opacity=".13"/><circle cx="130" cy="565" r="120" fill="#4ECDC4" opacity=".12"/><rect x="70" y="64" width="1060" height="540" rx="34" fill="#fff" opacity=".72" filter="url(#shadow)"/><rect x="475" y="355" width="250" height="150" rx="24" fill="#D97706" opacity=".85"/><path d="M500 360 h200 l-28 160 H528 Z" fill="#B45309"/><path d="M600 360 C590 285 580 245 545 210 C600 225 620 270 600 360" fill="#2F9E44"/><path d="M600 360 C615 280 655 230 715 215 C680 270 650 330 600 360" fill="#4ADE80"/><path d="M600 360 C610 300 608 245 600 185" stroke="#2F9E44" stroke-width="14" fill="none" stroke-linecap="round"/><circle cx="245" cy="210" r="58" fill="#FFD166"/><path d="M850 250 C830 285 810 315 810 350 a40 40 0 0 0 80 0 C890 315 870 285 850 250Z" fill="#38BDF8"/><rect x="176.0" y="286" width="138" height="48" rx="24" fill="#FFFFFF" stroke="#4ECDC4" stroke-width="3"/><text x="245" y="320" text-anchor="middle" font-family="Arial, Helvetica, sans-serif" font-size="20" font-weight="800" fill="#24324B">sunlight</text><rect x="785.0" y="401" width="130" height="48" rx="24" fill="#FFFFFF" stroke="#4ECDC4" stroke-width="3"/><text x="850" y="435" text-anchor="middle" font-family="Arial, Helvetica, sans-serif" font-size="20" font-weight="800" fill="#24324B">water</text><rect x="505.0" y="546" width="190" height="48" rx="24" fill="#FFFFFF" stroke="#4ECDC4" stroke-width="3"/><text x="600" y="580" text-anchor="middle" font-family="Arial, Helvetica, sans-serif" font-size="20" font-weight="800" fill="#24324B">sprout needs</text><text x="600" y="92" text-anchor="middle" font-family="Arial, Helvetica, sans-serif" font-size="42" font-weight="900" fill="#24324B">Sprout Needs Detective</text><text x="600" y="640" text-anchor="middle" font-family="Arial, Helvetica, sans-serif" font-size="25" font-weight="700" fill="#3B5560">Plants are living things with needs. Water and sunlight help tiny sprouts keep growing.</text></svg>